<svg viewBox="0 0 24 24" xmlns="http://www.w3.org/2000/svg" xmlns:xlink="http://www.w3.org/1999/xlink" width="24.000000" height="24.000000" fill="none" customFrame="#000000">
	<rect id="user-check" width="24.000000" height="24.000000" x="0.000000" y="0.000000" />
	<path id="Path" d="M0 0L24 0L24 24L0 24L0 0Z" fill-rule="evenodd" />
	<circle id="Oval" cx="9" cy="7" r="4" stroke="rgb(0,0,0)" stroke-linecap="round" stroke-linejoin="round" stroke-width="1.75" />
	<circle id="Oval" cx="9" cy="7" r="4" stroke="rgb(255,255,255)" stroke-opacity="0" stroke-linecap="round" stroke-linejoin="round" stroke-width="1.75" />
	<path id="Path" d="M3 21L3 19C3 16.7909 4.79086 15 7 15L11 15C13.2091 15 15 16.7909 15 19L15 21" fill-rule="evenodd" stroke="rgb(0,0,0)" stroke-linecap="round" stroke-linejoin="round" stroke-width="1.75" />
	<path id="Path" d="M3 21L3 19C3 16.7909 4.79086 15 7 15L11 15C13.2091 15 15 16.7909 15 19L15 21" fill-rule="evenodd" stroke="rgb(255,255,255)" stroke-opacity="0" stroke-linecap="round" stroke-linejoin="round" stroke-width="1.75" />
	<path id="Path" d="M16 11L18 13L22 9" fill-rule="evenodd" stroke="rgb(0,0,0)" stroke-linecap="round" stroke-linejoin="round" stroke-width="1.75" />
	<path id="Path" d="M16 11L18 13L22 9" fill-rule="evenodd" stroke="rgb(255,255,255)" stroke-opacity="0" stroke-linecap="round" stroke-linejoin="round" stroke-width="1.75" />
</svg>
