<svg viewBox="0 0 24 24" xmlns="http://www.w3.org/2000/svg" xmlns:xlink="http://www.w3.org/1999/xlink" width="24.000000" height="24.000000" fill="none" customFrame="#000000">
	<rect id="tools" width="24.000000" height="24.000000" x="0.000000" y="0.000000" />
	<path id="Path" d="M0 0L24 0L24 24L0 24L0 0Z" fill-rule="evenodd" />
	<path id="Path" d="M7 21.0001L20 8.00006C21.1046 6.89549 21.1046 5.10463 20 4.00006C18.8954 2.89549 17.1046 2.89549 16 4.00006L3 17.0001L3 21.0001L7 21.0001Z" fill-rule="evenodd" stroke="rgb(0,0,0)" stroke-linecap="round" stroke-linejoin="round" stroke-width="1.75" />
	<path id="Path" d="M7 21.0001L20 8.00006C21.1046 6.89549 21.1046 5.10463 20 4.00006C18.8954 2.89549 17.1046 2.89549 16 4.00006L3 17.0001L3 21.0001L7 21.0001Z" fill-rule="evenodd" stroke="rgb(255,255,255)" stroke-opacity="0" stroke-linecap="round" stroke-linejoin="round" stroke-width="1.75" />
	<path id="Path" d="M14.5 5.5L18.5 9.5" fill-rule="evenodd" stroke="rgb(0,0,0)" stroke-linecap="round" stroke-linejoin="round" stroke-width="1.75" />
	<path id="Path" d="M14.5 5.5L18.5 9.5" fill-rule="evenodd" stroke="rgb(255,255,255)" stroke-opacity="0" stroke-linecap="round" stroke-linejoin="round" stroke-width="1.75" />
	<path id="Path" d="M12 8L7 3L3 7L8 12" fill-rule="evenodd" stroke="rgb(0,0,0)" stroke-linecap="round" stroke-linejoin="round" stroke-width="1.75" />
	<path id="Path" d="M12 8L7 3L3 7L8 12" fill-rule="evenodd" stroke="rgb(255,255,255)" stroke-opacity="0" stroke-linecap="round" stroke-linejoin="round" stroke-width="1.75" />
	<path id="Path" d="M7 8L5.5 9.5" fill-rule="evenodd" stroke="rgb(0,0,0)" stroke-linecap="round" stroke-linejoin="round" stroke-width="1.75" />
	<path id="Path" d="M7 8L5.5 9.5" fill-rule="evenodd" stroke="rgb(255,255,255)" stroke-opacity="0" stroke-linecap="round" stroke-linejoin="round" stroke-width="1.75" />
	<path id="Path" d="M16 12L21 17L17 21L12 16" fill-rule="evenodd" stroke="rgb(0,0,0)" stroke-linecap="round" stroke-linejoin="round" stroke-width="1.75" />
	<path id="Path" d="M16 12L21 17L17 21L12 16" fill-rule="evenodd" stroke="rgb(255,255,255)" stroke-opacity="0" stroke-linecap="round" stroke-linejoin="round" stroke-width="1.75" />
	<path id="Path" d="M16 17L14.5 18.5" fill-rule="evenodd" stroke="rgb(0,0,0)" stroke-linecap="round" stroke-linejoin="round" stroke-width="1.75" />
	<path id="Path" d="M16 17L14.5 18.5" fill-rule="evenodd" stroke="rgb(255,255,255)" stroke-opacity="0" stroke-linecap="round" stroke-linejoin="round" stroke-width="1.75" />
</svg>
