<svg viewBox="0 0 24 24" xmlns="http://www.w3.org/2000/svg" width="24" height="24" fill="none">
    <!-- Серое заполнение + черная обводка (активный стиль) -->
    <path d="M7 11L7 19C7 19.5523 6.55228 20 6 20L4 20C3.44772 20 3 19.5523 3 19L3 12C3 11.4477 3.44772 11 4 11L7 11C9.20914 11 11 9.20914 11 7L11 6C11 4.89543 11.8954 4 13 4C14.1046 4 15 4.89543 15 6L15 11L18 11C19.1046 11 20 11.8954 20 13L19 18C18.7046 19.2603 17.8892 20.0756 17 20L10 20C8.34315 20 7 18.6569 7 17Z" 
          fill="#1f1f1fff"  
          stroke="#000000" 
          stroke-linecap="round" 
          stroke-linejoin="round" 
          stroke-width="1.5" />
</svg>
