<svg viewBox="0 0 24 24" xmlns="http://www.w3.org/2000/svg" width="24" height="24" fill="none">
    <!-- Серое заполнение + черная обводка (активный стиль thumb-down) -->
    <path d="M7 13L7 4.99997C7 4.44768 6.55228 3.99997 6 3.99997L4 3.99997C3.44772 3.99997 3 4.44768 3 4.99997L3 12C3 12.5523 3.44772 13 4 13L7 13C9.20914 13 11 14.7908 11 17L11 18C11 19.1045 11.8954 20 13 20C14.1046 20 15 19.1045 15 18L15 13L18 13C19.1046 13 20 12.1045 20 11L19 5.99997C18.7046 4.73971 17.8892 3.92432 17 3.99997L10 3.99997C8.34315 3.99997 7 5.34311 7 6.99997Z" 
          fill="#1f1f1fff" 
          stroke="#000000" 
          stroke-linecap="round" 
          stroke-linejoin="round" 
          stroke-width="1.5" />
</svg>
