<svg viewBox="0 0 24 24" xmlns="http://www.w3.org/2000/svg" xmlns:xlink="http://www.w3.org/1999/xlink" width="24.000000" height="24.000000" fill="none" customFrame="#000000">
<rect id="star-fill" width="24.000000" height="24.000000" x="0.000000" y="0.000000" />
<path id="Path" d="M11.5422 19.4862L6.65249 22.057C5.91886 22.4427 5.06139 21.8197 5.20153 21.0028L6.13563 15.5575C6.19132 15.2328 6.08357 14.9016 5.84754 14.6718L1.88688 10.8165C1.2926 10.2381 1.62021 9.22924 2.44096 9.11029L7.90487 8.31842C8.23073 8.2712 8.51246 8.06659 8.65818 7.77133L11.1032 2.81701C11.4701 2.07376 12.5299 2.07376 12.8967 2.81701L15.3418 7.77133C15.4875 8.06659 15.7692 8.2712 16.0951 8.31842L21.559 9.11029C22.3798 9.22924 22.7074 10.2381 22.1131 10.8165L18.1524 14.6718C17.9164 14.9016 17.8087 15.2328 17.8643 15.5575L18.798 21.0005C18.9382 21.8178 18.0799 22.4408 17.3462 22.0542L12.4738 19.4866C12.1823 19.333 11.8338 19.3329 11.5422 19.4862Z" fill="hsl(23, 98%, 44%)" fill-rule="evenodd" />
<path id="Path" d="M11.5422 19.4862L6.65249 22.057C5.91886 22.4427 5.06139 21.8197 5.20153 21.0028L6.13563 15.5575C6.19132 15.2328 6.08357 14.9016 5.84754 14.6718L1.88688 10.8165C1.2926 10.2381 1.62021 9.22924 2.44096 9.11029L7.90487 8.31842C8.23073 8.2712 8.51246 8.06659 8.65818 7.77133L11.1032 2.81701C11.4701 2.07376 12.5299 2.07376 12.8967 2.81701L15.3418 7.77133C15.4875 8.06659 15.7692 8.2712 16.0951 8.31842L21.559 9.11029C22.3798 9.22924 22.7074 10.2381 22.1131 10.8165L18.1524 14.6718C17.9164 14.9016 17.8087 15.2328 17.8643 15.5575L18.798 21.0005C18.9382 21.8178 18.0799 22.4408 17.3462 22.0542L12.4738 19.4866C12.1823 19.333 11.8338 19.3329 11.5422 19.4862Z" fill="rgb(255,255,255)" fill-opacity="0" fill-rule="evenodd" />
</svg>
